<svg width="25" height="25" viewBox="0 0 25 25" fill="none" xmlns="http://www.w3.org/2000/svg">
<path d="M17.2928 21.2088H10.0592C6.97102 21.2088 4.45861 18.6875 4.45861 15.5885V9.82761C4.45861 6.94671 3.02776 4.28008 0.631141 2.6943C0.200738 2.40954 0.0819128 1.82858 0.365675 1.39665C0.649436 0.964684 1.2283 0.845392 1.6588 1.13025C3.02692 2.0355 4.13686 3.22945 4.93055 4.6041C5.10207 4.79692 6.48513 6.26805 8.75242 6.26805H19.5012C22.4337 6.21302 24.729 9.16637 23.9623 12.007L22.725 16.9562C22.099 19.4601 19.8652 21.2088 17.2928 21.2088ZM6.08996 7.6123C6.24514 8.33175 6.32546 9.07359 6.32546 9.82761V15.5885C6.32546 17.6545 8.00041 19.3354 10.0592 19.3354H17.2928C19.0077 19.3354 20.4969 18.1695 20.9142 16.5003L22.1516 11.5511C22.6072 9.8632 21.2431 8.10886 19.5012 8.1415H8.75237C7.72696 8.1415 6.83442 7.91964 6.08996 7.6123ZM9.59246 23.7848C9.59246 23.1382 9.07007 22.6139 8.42568 22.6139C6.87749 22.6758 6.87885 24.8945 8.42568 24.9557C9.07007 24.9557 9.59246 24.4315 9.59246 23.7848ZM18.8801 23.7848C18.8801 23.1382 18.3577 22.6139 17.7133 22.6139C16.1651 22.6758 16.1664 24.8945 17.7133 24.9557C18.3577 24.9557 18.8801 24.4315 18.8801 23.7848ZM20.4346 10.9517C20.4346 10.4343 20.0167 10.015 19.5012 10.015H9.12575C7.88727 10.0644 7.88821 11.8394 9.12575 11.8884H19.5012C20.0167 11.8884 20.4346 11.469 20.4346 10.9517Z" fill="#3D3D3D"/>
</svg>
