<svg width="21" height="21" viewBox="0 0 21 21" fill="none" xmlns="http://www.w3.org/2000/svg">
<path d="M14.9366 16.9627C10.9568 20.1438 5.3936 19.2635 2.44687 15.6152C-0.39725 12.0928 -0.219376 7.01148 2.86605 3.79547C6.0541 0.472778 11.0663 0.0292116 14.6996 2.75487C16.0014 3.73121 16.9734 4.97332 17.6066 6.47683C18.2434 7.98907 18.4369 9.56245 18.2161 11.1851C17.9959 12.8003 17.3534 14.2395 16.308 15.5827C16.3926 15.6382 16.4827 15.6782 16.5474 15.7431C17.6968 16.891 18.8417 18.0432 19.9911 19.1911C20.2635 19.4631 20.3991 19.7801 20.3182 20.1619C20.1578 20.9217 19.256 21.2149 18.6776 20.6934C18.4064 20.4495 18.157 20.1806 17.8995 19.9223C16.9554 18.9759 16.0119 18.0289 15.0678 17.0825C15.0286 17.0451 14.9876 17.0101 14.9366 16.9627ZM16.3185 9.95236C16.3285 6.09565 13.2244 2.97758 9.37089 2.97197C5.52794 2.96635 2.42634 6.05946 2.40955 9.91368C2.39276 13.7798 5.49063 16.9066 9.35596 16.9246C13.1834 16.9427 16.3086 13.8128 16.3185 9.95236Z" fill="#3D3D3D"/>
</svg>
