<svg width="16" height="16" viewBox="0 0 16 16" fill="none" xmlns="http://www.w3.org/2000/svg">
<path d="M8 1.41791C10.1333 1.41791 10.4 1.41791 11.2667 1.48236C13.4667 1.54681 14.4667 2.57802 14.5333 4.64044C14.6 5.4783 14.6 5.67165 14.6 7.73407C14.6 9.79649 14.6 10.0543 14.5333 10.8277C14.4667 12.8901 13.4 13.9213 11.2667 13.9858C10.4 14.0502 10.2 14.0502 8 14.0502C5.86667 14.0502 5.6 14.0502 4.8 13.9858C2.6 13.9213 1.6 12.8901 1.53333 10.8277C1.46667 9.98984 1.46667 9.79649 1.46667 7.73407C1.46667 5.67165 1.46667 5.41385 1.53333 4.64044C1.6 2.57802 2.66667 1.54681 4.8 1.48236C5.6 1.41791 5.86667 1.41791 8 1.41791ZM8 0C5.8 0 5.53333 0 4.73333 0.0644506C1.8 0.193352 0.2 1.74017 0.0666667 4.57599C0 5.3494 0 5.6072 0 7.73407C0 9.86094 0 10.1187 0.0666667 10.8922C0.2 13.728 1.8 15.2748 4.73333 15.4037C5.53333 15.4681 5.8 15.4681 8 15.4681C10.2 15.4681 10.4667 15.4681 11.2667 15.4037C14.2 15.2748 15.8 13.728 15.9333 10.8922C16 10.1187 16 9.86094 16 7.73407C16 5.6072 16 5.3494 15.9333 4.57599C15.8 1.74017 14.2 0.193352 11.2667 0.0644506C10.4667 0 10.2 0 8 0ZM8 3.73814C5.73333 3.73814 3.86667 5.54275 3.86667 7.73407C3.86667 9.92539 5.73333 11.73 8 11.73C10.2667 11.73 12.1333 9.92539 12.1333 7.73407C12.1333 5.54275 10.2667 3.73814 8 3.73814ZM8 10.3121C6.53333 10.3121 5.33333 9.15199 5.33333 7.73407C5.33333 6.31616 6.53333 5.15605 8 5.15605C9.46667 5.15605 10.6667 6.31616 10.6667 7.73407C10.6667 9.15199 9.46667 10.3121 8 10.3121ZM12.2667 2.70693C11.7333 2.70693 11.3333 3.09363 11.3333 3.60923C11.3333 4.12484 11.7333 4.51154 12.2667 4.51154C12.8 4.51154 13.2 4.12484 13.2 3.60923C13.2 3.09363 12.8 2.70693 12.2667 2.70693Z" fill="#D46F94" fill-opacity="0.6"/>
</svg>
