<svg width="16" height="13" viewBox="0 0 16 13" fill="none" xmlns="http://www.w3.org/2000/svg">
<path d="M5.01003 12.561C11.0218 12.561 14.3095 7.72887 14.3095 3.53888C14.3095 3.4016 14.3066 3.26501 14.3001 3.12896C14.9382 2.68141 15.493 2.12277 15.9306 1.48713C15.345 1.73956 14.7148 1.90954 14.0537 1.98618C14.7284 1.59366 15.2466 0.972437 15.491 0.232035C14.8594 0.595381 14.16 0.859408 13.4157 1.00179C12.819 0.385494 11.9696 0 11.0298 0C9.22464 0 7.76082 1.42016 7.76082 3.17062C7.76082 3.41953 7.78963 3.66141 7.84544 3.89362C5.12925 3.76125 2.72054 2.4993 1.10869 0.580791C0.827666 1.04926 0.665866 1.59383 0.665866 2.17445C0.665866 3.27451 1.24295 4.24571 2.12044 4.81402C1.58431 4.79803 1.0806 4.65494 0.640137 4.41728C0.639412 4.43046 0.639412 4.44382 0.639412 4.45771C0.639412 5.99353 1.76622 7.2757 3.26156 7.56627C2.98706 7.63887 2.69825 7.6779 2.40001 7.6779C2.18947 7.6779 1.98473 7.65751 1.78561 7.62077C2.20161 8.88044 3.40833 9.79732 4.83899 9.82317C3.72015 10.6738 2.31087 11.1806 0.779652 11.1806C0.516023 11.1806 0.255837 11.166 0 11.1366C1.44642 12.0359 3.1639 12.561 5.01003 12.561Z" fill="#D46F94" fill-opacity="0.6"/>
</svg>
